<?xml version="1.0" encoding="UTF-8"?>
<!DOCTYPE svg PUBLIC "-//W3C//DTD SVG 1.1//EN" "http://www.w3.org/Graphics/SVG/1.1/DTD/svg11.dtd">
<!-- Creator: CorelDRAW X8 -->
<svg xmlns="http://www.w3.org/2000/svg" xml:space="preserve" width="279.4mm" height="215.9mm" version="1.1" style="shape-rendering:geometricPrecision; text-rendering:geometricPrecision; image-rendering:optimizeQuality; fill-rule:evenodd; clip-rule:evenodd"
viewBox="0 0 27940 21590"
 xmlns:xlink="http://www.w3.org/1999/xlink">
 <defs>
  <style type="text/css">
   <![CDATA[
    .fil0 {fill:none}
    .fil4 {fill:#FEFEFE}
    .fil3 {fill:#04BDD9}
    .fil7 {fill:#0EA2C9}
    .fil8 {fill:#48CFE3}
    .fil5 {fill:#9CCE2C}
    .fil2 {fill:#C0DB26}
    .fil6 {fill:#D1E561}
    .fil9 {fill:#D1E561}
    .fil1 {fill:#FEFEFE;fill-rule:nonzero}
   ]]>
  </style>
 </defs>
 <g id="Layer_x0020_1">
  <metadata id="CorelCorpID_0Corel-Layer"/>
  <rect class="fil0" y="6095" width="27940" height="9400"/>
  <g id="_2464042797776">
   <path class="fil1" d="M12289 9114l279 0c42,0 78,2 110,7 32,4 55,21 69,52 5,14 8,30 8,50 0,19 0,38 0,58l0 187c0,14 -1,30 -2,48 -1,18 -1,34 2,48l0 45c0,23 2,43 4,61 3,18 10,34 21,48 20,25 55,38 106,39 52,1 101,2 148,2 17,0 33,0 50,0 16,0 32,3 46,9 30,13 47,38 52,74 4,36 6,77 6,121 0,19 0,39 2,58 1,20 -1,36 -6,50 -14,45 -43,68 -88,71 -44,3 -94,4 -149,4 -12,0 -23,-1 -36,-2 -12,-1 -23,-1 -31,2 -11,3 -21,4 -29,2 -8,-1 -17,1 -25,6 -22,6 -38,18 -48,36 -10,18 -17,39 -23,64 -3,14 -3,29 0,46 3,17 3,32 0,46l0 258 0 486c0,70 2,130 6,181 5,52 22,97 52,135 14,17 33,29 57,36 23,7 47,13 72,19 9,2 18,3 27,2 10,-2 18,-1 23,2l46 0c31,0 57,1 79,4 22,3 40,14 54,33 11,17 17,38 17,65 0,26 0,53 0,81 0,58 -1,111 -2,160 -2,48 -25,81 -69,98 -14,5 -26,7 -37,6 -11,-1 -24,1 -38,6l-41 0c-6,0 -14,-1 -25,-2 -11,-1 -21,-1 -29,2 -14,3 -29,4 -44,2 -15,-1 -30,-2 -44,-2 -14,0 -28,1 -41,2 -14,2 -27,1 -38,-2l-46 0c-13,-3 -29,-4 -45,-4 -17,0 -32,-1 -46,-4 -20,-3 -38,-6 -54,-8 -17,-3 -34,-6 -50,-9 -31,-8 -60,-18 -88,-29 -27,-11 -54,-23 -79,-37 -8,-6 -16,-12 -25,-19 -8,-7 -18,-15 -29,-23 -5,-5 -12,-12 -20,-19 -9,-7 -16,-13 -21,-18 -39,-53 -68,-111 -88,-175 -5,-11 -7,-22 -6,-31 2,-10 1,-22 -2,-36 -3,-5 -4,-12 -4,-20 0,-9 -1,-16 -4,-21l0 -42c-3,-11 -4,-23 -2,-37 1,-14 2,-28 2,-42l0 -158 0 -620 0 -220c0,-20 0,-39 2,-59 1,-19 -1,-37 -6,-54 -11,-38 -31,-63 -59,-74 -30,-14 -69,-18 -116,-13 -47,6 -87,1 -121,-12 -22,-9 -36,-21 -41,-38 -6,-17 -11,-37 -17,-62l0 -88c0,-50 3,-90 8,-120 6,-31 29,-52 71,-63 11,-5 22,-7 33,-6 11,1 24,2 38,2 41,0 80,-2 116,-6 36,-4 61,-20 75,-48 8,-19 13,-41 15,-66 1,-25 2,-50 2,-75l0 -258c0,-22 0,-46 0,-71 0,-25 3,-46 8,-62 14,-28 35,-46 63,-54 5,-3 13,-4 22,-3 10,2 18,1 23,-2zm3135 1627c6,17 9,40 9,71 0,30 -3,54 -9,70l0 42c-5,22 -7,44 -6,67 2,22 -1,44 -6,66 -6,19 -10,38 -13,54 -2,17 -5,35 -8,54 -11,31 -21,62 -29,94 -8,32 -19,62 -33,89 -59,133 -135,242 -229,325 -94,83 -208,152 -341,208 -34,14 -67,24 -102,31 -35,7 -70,14 -106,23 -14,5 -29,8 -46,8 -17,0 -32,2 -46,4 -8,0 -17,1 -27,2 -9,2 -18,2 -27,2 -14,3 -36,5 -66,7 -31,1 -54,-1 -71,-7l-42 0c-14,-2 -28,-3 -43,-2 -16,2 -30,0 -44,-6 -11,-3 -22,-4 -31,-4 -10,0 -22,-1 -36,-4 -27,-9 -55,-15 -83,-21 -28,-6 -54,-14 -79,-25 -33,-11 -64,-22 -93,-33 -30,-11 -59,-25 -90,-42 -97,-58 -180,-126 -249,-204 -70,-77 -128,-170 -175,-278 -14,-25 -24,-52 -31,-79 -7,-28 -15,-57 -23,-88 -6,-14 -9,-26 -9,-37 0,-11 -2,-24 -8,-38 -5,-22 -8,-45 -8,-68 0,-24 -3,-47 -9,-69 -2,-14 -4,-26 -4,-37 0,-11 0,-24 0,-38 -5,-16 -7,-40 -6,-71 1,-30 5,-54 10,-70l0 -29c3,-14 4,-29 3,-44 -2,-15 0,-30 6,-44 3,-14 4,-27 4,-39 0,-13 3,-26 8,-40 11,-36 21,-71 29,-106 9,-34 20,-68 34,-102 50,-113 109,-208 179,-285 69,-76 153,-146 253,-210 28,-14 57,-26 88,-37 30,-11 61,-24 91,-38 36,-14 74,-23 112,-29 39,-5 80,-14 121,-25 22,-3 43,-4 63,-4 19,0 38,-1 58,-4 161,-3 300,14 418,50 118,36 222,86 314,150 30,22 62,46 93,72 32,27 59,55 82,86 22,27 42,55 60,83 18,28 37,57 56,87 19,31 35,63 46,98 11,35 23,71 37,110 9,22 16,46 21,71 6,25 11,50 17,75 2,11 4,22 4,33 0,11 1,22 4,33 6,14 7,30 4,46 -3,17 -1,32 4,46zm-582 150c3,-14 4,-34 4,-61 0,-26 -1,-46 -4,-60l0 -33c-6,-14 -8,-29 -8,-46 0,-17 -2,-32 -5,-46 0,-11 -1,-19 -4,-25 -5,-22 -10,-45 -14,-68 -4,-24 -11,-47 -19,-69 -30,-72 -67,-134 -108,-185 -42,-51 -97,-92 -166,-123 -17,-5 -34,-10 -50,-14 -17,-5 -35,-9 -54,-15 -23,-5 -46,-8 -71,-6 -25,1 -50,2 -75,2 -8,5 -18,8 -29,6 -11,-1 -21,-1 -29,2 -20,6 -38,11 -56,15 -19,4 -34,10 -48,18 -70,31 -126,75 -169,132 -43,56 -77,122 -102,197 -8,28 -14,57 -18,87 -5,31 -9,61 -15,92 -3,14 -4,28 -4,42 0,13 0,27 0,41 -6,20 -8,49 -6,88 1,38 4,67 10,87l0 37c6,23 10,44 12,65 3,21 7,42 13,64 28,84 58,151 89,202 32,51 83,98 152,139 20,14 41,25 65,34 23,8 48,15 73,20 11,3 20,4 29,3 8,-2 18,-1 29,2 11,2 23,5 35,6 13,1 24,1 35,-2l34 0c22,-6 44,-10 66,-13 22,-2 43,-8 63,-16 72,-28 130,-65 174,-113 45,-47 82,-105 113,-174 11,-28 19,-56 25,-84 5,-27 12,-56 20,-87 3,-11 5,-21 5,-31 0,-10 1,-20 4,-31 0,-14 0,-27 0,-40 0,-12 1,-25 4,-39zm2004 -1190c30,0 57,3 81,8 23,6 42,18 56,38 16,22 25,60 25,114 0,54 0,102 0,144 0,30 1,65 2,104 1,38 -4,69 -15,91 -11,20 -27,32 -47,38 -21,5 -45,8 -71,8 -27,0 -54,-1 -83,-4 -30,-3 -57,-2 -82,4 -19,5 -38,9 -58,10 -19,2 -37,5 -54,11 -44,14 -89,34 -133,60 -44,26 -79,56 -104,89 -14,23 -28,46 -44,69 -15,24 -29,48 -43,73 -9,22 -16,45 -23,69 -7,23 -13,46 -19,68 -5,20 -8,40 -8,60 0,21 -3,41 -9,61 -2,11 -3,21 -2,31 2,10 1,19 -2,27l0 67c-5,19 -7,40 -4,64 3,24 4,47 4,69l0 266 0 354c0,36 -1,69 -4,99 -3,31 -11,56 -25,75 -5,9 -14,15 -27,19 -12,4 -26,8 -39,10l-21 0c-14,3 -29,5 -46,5 -17,0 -32,0 -46,0l-179 0c-16,-3 -34,-5 -52,-5 -18,0 -36,0 -56,0 -14,-5 -27,-10 -41,-14 -14,-4 -24,-13 -29,-27 -12,-14 -18,-34 -19,-61 -2,-26 -2,-53 -2,-81l0 -283 0 -1173 0 -307c0,-28 0,-55 0,-82 0,-26 5,-47 16,-64 14,-22 35,-36 63,-42 28,-5 61,-8 100,-8l212 0c33,0 62,2 87,6 25,4 44,18 58,40 9,14 14,33 15,58 1,25 3,49 6,73 3,23 8,45 15,64 7,20 20,29 39,29 6,-5 11,-8 17,-8 5,0 11,-3 17,-8 16,-14 31,-30 43,-48 13,-18 29,-34 48,-48 11,-8 21,-17 29,-27 8,-10 18,-19 29,-27 25,-17 51,-33 77,-50 27,-17 54,-32 81,-46 28,-11 57,-20 86,-29 29,-8 59,-16 89,-25 8,-3 24,-3 48,-2 23,2 38,-1 44,-6zm1500 0c166,-6 305,18 416,71 111,52 198,130 262,233 19,30 35,63 46,97 11,35 22,70 33,106 5,23 9,43 10,63 2,19 5,39 11,58 0,17 1,28 4,33 5,39 8,79 8,121 0,42 0,82 0,121l0 370 0 674c0,52 0,103 -2,152 -1,48 -21,79 -60,93 -17,6 -36,9 -58,9 -23,0 -45,0 -67,0l-225 0c-33,0 -63,-3 -89,-7 -26,-4 -46,-16 -60,-35 -11,-17 -18,-38 -19,-65 -1,-26 -2,-54 -2,-85l0 -291 0 -620c0,-102 -4,-197 -13,-285 -8,-87 -33,-161 -75,-222 -38,-56 -95,-95 -170,-117 -14,-5 -29,-8 -44,-8 -15,0 -31,-3 -48,-8 -13,-3 -31,-4 -52,-3 -20,2 -36,4 -47,7 -12,2 -21,4 -30,4 -8,0 -16,1 -25,4 -63,17 -115,39 -153,67 -89,63 -142,156 -158,278 -17,122 -25,260 -25,412l0 520 0 254c0,25 0,50 0,75 0,25 -5,45 -13,62 -14,31 -36,49 -66,54 -31,6 -68,9 -113,9l-208 0c-30,0 -61,-2 -91,-5 -31,-2 -53,-12 -67,-29 -19,-25 -28,-61 -27,-108 1,-47 2,-91 2,-133l0 -566 0 -915 0 -212c0,-31 1,-58 2,-83 2,-25 9,-46 23,-63 6,-8 15,-14 27,-18 13,-5 26,-8 40,-11l20 0c14,-3 29,-4 44,-4 15,0 30,0 44,0l175 0c22,0 43,1 64,2 21,1 40,5 56,11 20,8 33,20 40,37 7,17 13,36 18,58 3,11 4,21 3,29 -2,9 0,17 6,25 5,14 10,22 14,25 4,3 11,7 19,13 31,2 55,-8 75,-31 19,-24 40,-43 62,-57 75,-55 158,-99 250,-133 25,-8 51,-14 77,-16 26,-3 55,-7 85,-13 8,-3 21,-3 38,-2 16,1 27,1 33,-2zm1275 -287c-27,0 -54,-1 -79,-4 -25,-3 -44,-13 -58,-29 -11,-11 -19,-29 -23,-52 -4,-24 -6,-49 -6,-75 0,-27 1,-54 2,-81 2,-28 2,-53 2,-75 0,-22 1,-45 2,-67 2,-22 7,-40 15,-54 5,-8 13,-15 23,-21 9,-5 18,-11 27,-16 5,0 12,-1 19,-2 6,-2 13,-2 18,-2l291 0c31,0 59,0 86,0 26,0 48,6 64,20 25,20 38,55 38,106 0,52 0,100 0,144 0,14 0,29 2,46 1,16 -1,32 -7,45l0 25c-5,31 -15,53 -29,67 -16,14 -38,21 -64,23 -26,1 -55,2 -85,2l-238 0zm421 2404c0,108 -2,213 -7,314 -4,102 -27,186 -68,252 -36,56 -78,101 -125,137 -47,36 -105,66 -175,88 -25,8 -50,14 -75,16 -25,3 -50,7 -75,13 -19,3 -38,4 -58,4 -19,0 -39,1 -58,4l-46 0c-16,6 -42,8 -77,8 -34,0 -59,-2 -73,-8 -41,-8 -70,-25 -87,-50 -5,-14 -9,-30 -10,-50 -2,-19 -2,-40 -2,-62 0,-20 -1,-42 -2,-67 -2,-25 -3,-50 -3,-75 0,-24 2,-48 5,-70 2,-22 7,-40 12,-54 14,-31 39,-45 75,-44 36,1 72,-3 108,-15 81,-19 131,-72 150,-158 3,-11 3,-22 2,-33 -1,-11 -1,-23 2,-37 6,-17 8,-35 6,-54 -1,-20 -2,-39 -2,-59l0 -1838c0,-31 0,-63 -2,-98 -1,-35 5,-63 19,-85 11,-20 33,-34 66,-42 6,0 14,1 25,2 11,1 20,-1 25,-6l208 0c17,0 35,-1 54,-2 20,-2 36,0 50,6l38 0c14,6 28,10 43,13 16,2 26,11 32,24 8,14 14,32 18,55 5,22 7,47 9,74 1,28 1,56 0,84 -2,27 -2,52 -2,74l0 1739zm2269 -83c6,31 9,61 11,92 1,30 -13,51 -44,62 -16,8 -36,13 -58,13 -22,0 -44,0 -67,0l-224 0c-25,0 -49,-1 -73,-3 -24,-1 -42,-7 -56,-18 -20,-11 -34,-27 -44,-48 -10,-21 -23,-38 -39,-52 -6,-6 -13,-11 -21,-15 -9,-4 -20,-5 -33,-2 -14,6 -28,13 -40,21 -12,8 -26,15 -40,21 -13,11 -29,21 -45,29 -17,8 -34,17 -50,25 -36,17 -74,30 -113,39 -38,10 -79,21 -120,32 -20,5 -38,9 -56,10 -18,1 -37,4 -56,6 -9,0 -17,1 -25,2 -9,2 -17,2 -25,2l-46 0c-28,6 -56,6 -83,0l-38 0c-19,-5 -38,-7 -56,-6 -18,2 -35,0 -52,-6 -28,-6 -54,-10 -79,-15 -25,-4 -49,-11 -71,-22 -80,-31 -149,-70 -206,-119 -56,-49 -102,-113 -135,-193 -8,-20 -16,-41 -23,-63 -7,-22 -13,-46 -18,-71 -6,-13 -8,-27 -7,-41 2,-14 1,-28 -2,-42 -2,-8 -5,-25 -6,-52 -1,-26 -1,-45 2,-56 6,-28 8,-51 8,-71 9,-30 17,-61 25,-93 9,-32 20,-61 34,-86 47,-80 101,-141 162,-183 61,-41 139,-77 233,-108 36,-14 73,-23 112,-29 39,-5 78,-12 117,-21 22,-5 45,-9 70,-10 25,-1 50,-5 75,-10 20,-6 39,-8 58,-7 20,2 41,0 63,-6 19,-5 39,-8 58,-8 20,0 40,-3 63,-9 58,-13 111,-25 160,-35 48,-10 92,-34 131,-73 25,-25 41,-52 50,-83 2,-8 3,-15 2,-21 -2,-5 -1,-11 2,-16 3,-6 4,-14 4,-25 0,-11 0,-20 0,-25 -3,-11 -5,-22 -6,-34 -2,-11 -4,-20 -7,-29 -27,-83 -85,-140 -174,-170 -25,-9 -55,-15 -90,-19 -34,-4 -70,-5 -106,-4 -36,1 -70,5 -104,10 -33,6 -62,13 -87,21 -17,6 -33,13 -48,23 -15,10 -30,20 -44,31 -13,11 -28,27 -43,46 -16,19 -26,37 -31,54 -14,28 -26,54 -36,79 -10,25 -30,42 -60,50 -22,6 -46,8 -71,8 -25,0 -50,0 -75,0l-158 0c-14,0 -28,1 -41,2 -14,2 -27,1 -38,-2l-37 0c-6,-2 -13,-4 -21,-4 -8,0 -15,-3 -21,-8 -22,-6 -37,-24 -46,-54 -2,-14 -2,-28 0,-42 3,-14 6,-26 9,-37 8,-31 17,-59 27,-86 9,-26 21,-50 35,-72 8,-14 17,-28 25,-42 8,-14 17,-28 25,-42 22,-30 50,-59 83,-87 6,-3 14,-10 25,-21 14,-11 26,-21 38,-29 11,-8 23,-16 37,-25 47,-30 97,-55 150,-73 52,-18 107,-35 162,-52 33,-8 68,-13 104,-16 36,-3 72,-9 108,-17 11,-3 29,-3 52,0 24,3 38,1 44,-4 114,-3 222,1 326,12 104,12 199,32 283,63 85,30 158,71 219,123 61,51 108,117 141,197 19,47 31,101 33,162 3,61 5,124 5,188l0 927c0,53 0,106 0,160 0,54 5,104 16,148 3,8 4,17 4,27 0,10 2,19 4,27zm-611 -640c3,-14 4,-30 4,-48 0,-18 -1,-34 -4,-48 -6,-17 -8,-32 -8,-46 0,-14 -6,-25 -17,-33 -14,-11 -35,-17 -62,-17 -11,3 -21,5 -30,6 -8,2 -18,4 -29,7 -19,5 -40,9 -62,12 -22,3 -44,7 -67,13 -8,2 -20,4 -37,4 -36,8 -72,14 -108,16 -36,3 -71,10 -104,21 -22,6 -43,11 -63,15 -19,4 -38,10 -58,18 -58,25 -107,63 -147,113 -41,50 -55,119 -44,208 5,47 21,86 46,116 19,31 48,55 87,73 39,18 81,31 127,40 46,8 94,10 145,6 52,-4 100,-13 144,-27 72,-22 129,-58 170,-106 42,-49 74,-109 96,-181 6,-20 9,-40 11,-61 1,-20 4,-42 10,-64l0 -37z"/>
   <path class="fil1" d="M22722 8936l304 0c30,0 58,1 83,4 25,2 44,11 58,25 22,25 33,65 31,120 -1,56 -2,107 -2,154l0 703 0 254c0,19 -1,40 -4,62 -3,23 -1,43 4,63l0 37c6,14 10,29 13,44 2,15 11,26 24,31 9,6 20,6 34,2 14,-4 23,-9 29,-14 28,-20 52,-42 73,-67 20,-25 42,-48 64,-71 22,-22 46,-45 71,-68 25,-24 47,-50 66,-77 9,-6 18,-14 30,-25 13,-14 27,-29 41,-44 14,-15 28,-30 42,-44l95 -95c6,-11 14,-20 23,-27 10,-7 19,-16 27,-27 23,-28 47,-52 73,-73 27,-21 59,-35 98,-44 14,-3 33,-4 58,-4 11,-3 22,-3 33,-2 12,1 24,2 38,2l137 0c22,0 49,-1 81,-4 32,-3 59,-2 81,4l46 0c14,6 28,9 42,10 14,2 23,8 29,19 5,8 6,20 2,33 -4,14 -9,24 -15,30 -16,27 -37,52 -62,72 -25,21 -49,43 -71,65 -19,19 -38,39 -56,58 -18,19 -38,37 -60,54 -14,11 -26,23 -36,35 -9,13 -21,25 -35,36 -14,8 -26,19 -37,33 -11,14 -24,26 -38,38l-158 158c-19,16 -37,32 -52,47 -15,16 -30,34 -44,57 -5,8 -11,18 -16,31 -6,12 -6,25 0,39 5,31 16,56 31,75 15,20 30,40 44,63 22,30 42,61 60,91 18,31 38,61 60,92l437 661c28,39 55,78 81,117 27,38 51,77 73,116 8,14 13,31 15,50 1,19 -5,35 -19,46 -11,5 -22,8 -33,8 -12,0 -24,3 -38,8 -11,3 -23,4 -37,2 -14,-1 -28,-2 -42,-2l-162 0c-45,0 -97,1 -158,2 -61,2 -107,-4 -137,-18 -31,-14 -57,-40 -80,-77 -22,-38 -43,-72 -62,-102 -47,-75 -94,-151 -141,-227 -48,-76 -95,-152 -142,-227 -22,-36 -43,-72 -64,-108 -21,-36 -44,-70 -69,-104 -5,-8 -15,-19 -29,-33 -14,-14 -29,-18 -46,-12 -25,5 -43,13 -56,24 -12,12 -26,24 -39,38 -23,17 -43,36 -63,58 -19,22 -35,49 -46,79 -5,22 -8,47 -8,73 0,26 0,52 0,77l0 258c0,19 1,41 2,64 2,24 2,48 2,73 0,25 -1,48 -4,69 -3,21 -8,37 -17,48 -11,16 -28,28 -52,35 -23,7 -50,11 -81,12 -30,2 -62,2 -95,0 -34,-1 -63,-2 -88,-2 -30,0 -64,1 -100,2 -36,2 -65,-2 -87,-10 -36,-14 -55,-39 -58,-75 -3,-36 -4,-77 -4,-125l0 -478 0 -1668 0 -387c0,-31 -1,-62 -2,-96 -2,-33 3,-59 14,-79 11,-19 31,-33 58,-41 6,0 12,-1 19,-2 7,-2 13,-2 19,-2z"/>
  </g>
  <polygon class="fil2" points="7738,7920 7334,9060 8099,10691 8114,11961 8085,12366 9184,13308 10147,14565 10134,11151 8786,9998 "/>
  <polygon class="fil3" points="7507,7025 7738,7920 8786,9998 9802,10893 9947,10042 9283,9176 9110,7949 9297,7718 8229,7155 "/>
  <polygon class="fil2" points="9297,7718 10409,8439 10402,10615 9947,10042 9283,9176 9110,7949 "/>
  <polygon class="fil4" points="7334,9060 7984,9057 7625,9680 "/>
  <polygon class="fil5" points="10134,11151 9184,13308 10147,14565 "/>
  <polygon class="fil6" points="10134,11151 8085,12366 8786,9998 "/>
  <polygon class="fil5" points="8786,9998 8099,10691 8085,12366 "/>
  <polygon class="fil7" points="9802,10893 9947,10042 8786,9998 "/>
  <polygon class="fil8" points="8786,9998 9283,9176 7738,7920 "/>
  <polygon class="fil7" points="9110,7949 7738,7920 9283,9176 "/>
  <polygon class="fil8" points="9110,7949 8229,7155 7507,7025 "/>
  <polygon class="fil5" points="10409,8439 10402,10615 9283,9176 "/>
  <polygon class="fil9" points="10409,8439 9110,7949 9283,9176 "/>
  <polygon class="fil2" points="5942,7920 6347,9060 5582,10691 5567,11961 5596,12366 4496,13308 3534,14565 3547,11151 4895,9998 "/>
  <polygon class="fil3" points="6173,7025 5942,7920 4895,9998 3878,10893 3734,10042 4398,9176 4571,7949 4384,7718 5452,7155 "/>
  <polygon class="fil2" points="4384,7718 3272,8439 3279,10615 3734,10042 4398,9176 4571,7949 "/>
  <polygon class="fil4" points="6347,9060 5697,9057 6056,9680 "/>
  <polygon class="fil7" points="6101,12409 6843,11883 7586,12409 "/>
  <polygon class="fil4" points="7586,11050 6843,11871 6101,11050 "/>
  <polygon class="fil5" points="3547,11151 4496,13308 3534,14565 "/>
  <polygon class="fil6" points="3547,11151 5596,12366 4895,9998 "/>
  <polygon class="fil5" points="4895,9998 5582,10691 5596,12366 "/>
  <polygon class="fil7" points="3878,10893 3734,10042 4895,9998 "/>
  <polygon class="fil8" points="4895,9998 4398,9176 5942,7920 "/>
  <polygon class="fil7" points="4571,7949 5942,7920 4398,9176 "/>
  <polygon class="fil8" points="4571,7949 5452,7155 6173,7025 "/>
  <polygon class="fil5" points="3272,8439 3279,10615 4398,9176 "/>
  <polygon class="fil9" points="3272,8439 4571,7949 4398,9176 "/>
 </g>
</svg>
